# xmcd
#
# Track frame offsets: 
#        150
#        19676
#        28451
#        39899
#
# Disc length: 744 seconds
#
# Revision: 0
# Processed by: cddbd v1.5.2PL0 Copyright (c) Steve Scherf et al.
# Submitted via: ExactAudioCopy v0.95b4
#
DISCID=2802e604
DTITLE=Samy Deluxe - Schwarz Weiss (Mzee Bonus)
DYEAR=2011
DGENRE=Hiphop
TTITLE0=Stolz auf mich
TTITLE1=Klicka Klacka
TTITLE2=Höhenflug
TTITLE3=Hahahaha
EXTD=
EXTT0=
EXTT1=
EXTT2=
EXTT3=
PLAYORDER=
